<svg xmlns="http://www.w3.org/2000/svg" width="24" height="24" viewBox="0 0 24 24" fill="none" stroke="#b5651d" stroke-width="1.8" stroke-linecap="round" stroke-linejoin="round"><path d="M4,6 L20,6 M7,6 L7,19 M12,6 L12,20 M17,6 L17,18 M8.3,12 L8.05172209268743,12.764120827980214 L7.401722092687431,13.2363734711837 L6.598277907312569,13.2363734711837 L5.948277907312568,12.764120827980216 L5.7,12 L5.948277907312568,11.235879172019786 L6.598277907312568,10.7636265288163 L7.401722092687431,10.7636265288163 L8.05172209268743,11.235879172019784 L8.3,12 M13.3,10 L13.05172209268743,10.764120827980214 L12.401722092687432,11.2363734711837 L11.598277907312568,11.2363734711837 L10.94827790731257,10.764120827980216 L10.7,10 L10.94827790731257,9.235879172019786 L11.598277907312568,8.7636265288163 L12.401722092687432,8.7636265288163 L13.05172209268743,9.235879172019784 L13.3,10 M13.3,16 L13.05172209268743,16.764120827980214 L12.401722092687432,17.2363734711837 L11.598277907312568,17.2363734711837 L10.94827790731257,16.764120827980214 L10.7,16 L10.94827790731257,15.235879172019786 L11.598277907312568,14.7636265288163 L12.401722092687432,14.7636265288163 L13.05172209268743,15.235879172019784 L13.3,16 M18.3,11 L18.05172209268743,11.764120827980214 L17.401722092687432,12.2363734711837 L16.598277907312568,12.2363734711837 L15.94827790731257,11.764120827980216 L15.7,11 L15.94827790731257,10.235879172019786 L16.598277907312568,9.7636265288163 L17.401722092687432,9.7636265288163 L18.05172209268743,10.235879172019784 L18.3,11"/></svg>
