<svg xmlns="http://www.w3.org/2000/svg" width="24" height="24" viewBox="0 0 24 24" fill="none" stroke="#e55b7a" stroke-width="1.8" stroke-linecap="round" stroke-linejoin="round"><path d="M4,12 C4,6 11,4 15,5 C20,6.5 21,12 18,15 C16,16.5 16.5,13.5 14,14 C11.5,14.5 12.5,18 9,18 C5.5,18 4,15 4,12 Z M9.1,9 L8.889918693812442,9.64656377752172 L8.339918693812443,10.046162167924669 L7.660081306187558,10.046162167924669 L7.110081306187558,9.64656377752172 L6.9,9 L7.110081306187558,8.35343622247828 L7.660081306187558,7.953837832075331 L8.339918693812441,7.953837832075331 L8.889918693812442,8.35343622247828 L9.1,9 M13.1,8 L12.889918693812442,8.64656377752172 L12.339918693812443,9.046162167924669 L11.660081306187557,9.046162167924669 L11.110081306187558,8.64656377752172 L10.9,8 L11.110081306187558,7.35343622247828 L11.660081306187557,6.953837832075331 L12.339918693812441,6.953837832075331 L12.889918693812442,7.35343622247828 L13.1,8 M16.6,10 L16.389918693812444,10.64656377752172 L15.839918693812443,11.046162167924669 L15.160081306187557,11.046162167924669 L14.610081306187558,10.64656377752172 L14.4,10 L14.610081306187558,9.35343622247828 L15.160081306187557,8.953837832075331 L15.839918693812441,8.953837832075331 L16.389918693812444,9.35343622247828 L16.6,10"/></svg>
