<svg xmlns="http://www.w3.org/2000/svg" width="24" height="24" viewBox="0 0 24 24" fill="none" stroke="#e07b39" stroke-width="1.8" stroke-linecap="round" stroke-linejoin="round"><path d="M14.2,7 L13.982131509385322,7.954544226058628 L13.371677564089214,8.720029261429666 L12.489546054703892,9.144841406800012 L11.510453945296108,9.144841406800012 L10.628322435910786,8.720029261429666 L10.017868490614678,7.954544226058628 L9.8,7 L10.017868490614678,6.045455773941372 L10.628322435910786,5.279970738570334 L11.510453945296108,4.855158593199988 L12.48954605470389,4.855158593199987 L13.371677564089214,5.279970738570334 L13.982131509385322,6.045455773941374 L14.2,6.999999999999999 M8,18 C8,13 16,13 16,18 M7.1,10 L6.885640646055102,10.8 L6.300000000000001,11.385640646055101 L5.5,11.6 L4.7,11.385640646055101 L4.114359353944898,10.8 L3.9,10 L4.114359353944898,9.200000000000001 L4.699999999999999,8.614359353944899 L5.5,8.4 L6.300000000000001,8.614359353944899 L6.885640646055101,9.2 L7.1,10 M2.5,18 C2.5,14.5 6,13.5 7.5,15 M20.1,10 L19.8856406460551,10.8 L19.3,11.385640646055101 L18.5,11.6 L17.7,11.385640646055101 L17.1143593539449,10.8 L16.9,10 L17.1143593539449,9.200000000000001 L17.7,8.614359353944899 L18.5,8.4 L19.3,8.614359353944899 L19.8856406460551,9.2 L20.1,10 M21.5,18 C21.5,14.5 18,13.5 16.5,15"/></svg>
