<svg xmlns="http://www.w3.org/2000/svg" width="24" height="24" viewBox="0 0 24 24" fill="none" stroke="#2d7dd2" stroke-width="1.8" stroke-linecap="round" stroke-linejoin="round"><path d="M3,12 C8,6 16,6 21,12 C16,18 8,18 3,12 Z M15.4,12 L15.194954910672088,13.162868487307273 L14.604551106604525,14.185477872934234 L13.700000000000001,14.944486372867091 L12.590403804067563,15.348346360241507 L11.409596195932437,15.348346360241507 L10.3,14.944486372867091 L9.395448893395475,14.185477872934234 L8.805045089327912,13.162868487307275 L8.6,12 L8.805045089327912,10.837131512692727 L9.395448893395473,9.814522127065768 L10.299999999999999,9.05551362713291 L11.409596195932437,8.651653639758493 L12.590403804067561,8.651653639758493 L13.699999999999998,9.055513627132907 L14.604551106604525,9.814522127065766 L15.194954910672088,10.837131512692727 L15.4,12 M13,12 L12.707106781186548,12.707106781186548 L12,13 L11.292893218813452,12.707106781186548 L11,12 L11.292893218813452,11.292893218813452 L12,11 L12.707106781186548,11.292893218813452 L13,12"/></svg>
