<svg xmlns="http://www.w3.org/2000/svg" width="24" height="24" viewBox="0 0 24 24" fill="none" stroke="#7c4dbf" stroke-width="1.8" stroke-linecap="round" stroke-linejoin="round"><path d="M4,9 C4,6.5 8,6 10,7.5 C11,8.2 13,8.2 14,7.5 C16,6 20,6.5 20,9 C20,13.5 16,16.5 12,15.5 C8,16.5 4,13.5 4,9 Z M10.3,10 L10.05172209268743,10.764120827980214 L9.401722092687432,11.2363734711837 L8.598277907312568,11.2363734711837 L7.948277907312568,10.764120827980216 L7.7,10 L7.948277907312568,9.235879172019786 L8.598277907312568,8.7636265288163 L9.401722092687432,8.7636265288163 L10.05172209268743,9.235879172019784 L10.3,10 M16.3,10 L16.05172209268743,10.764120827980214 L15.401722092687432,11.2363734711837 L14.598277907312568,11.2363734711837 L13.94827790731257,10.764120827980216 L13.7,10 L13.94827790731257,9.235879172019786 L14.598277907312568,8.7636265288163 L15.401722092687432,8.7636265288163 L16.05172209268743,9.235879172019784 L16.3,10"/></svg>
