<svg xmlns="http://www.w3.org/2000/svg" width="24" height="24" viewBox="0 0 24 24" fill="none" stroke="#c2549d" stroke-width="1.8" stroke-linecap="round" stroke-linejoin="round"><path d="M7.5,9 L16.5,9 M7.5,9.8 L10.8,16 M16.5,9.8 L13.2,16 M8.2,8 L7.982131509385322,8.954544226058628 L7.3716775640892145,9.720029261429666 L6.489546054703892,10.144841406800012 L5.510453945296108,10.144841406800012 L4.628322435910786,9.720029261429666 L4.017868490614678,8.954544226058628 L3.8,8 L4.017868490614678,7.045455773941372 L4.6283224359107855,6.279970738570334 L5.510453945296108,5.855158593199988 L6.489546054703889,5.855158593199987 L7.371677564089214,6.279970738570334 L7.982131509385322,7.045455773941374 L8.2,7.999999999999999 M20.2,8 L19.982131509385322,8.954544226058628 L19.371677564089214,9.720029261429666 L18.48954605470389,10.144841406800012 L17.51045394529611,10.144841406800012 L16.628322435910786,9.720029261429666 L16.017868490614678,8.954544226058628 L15.8,8 L16.017868490614678,7.045455773941372 L16.628322435910786,6.279970738570334 L17.510453945296106,5.855158593199988 L18.48954605470389,5.855158593199987 L19.371677564089214,6.279970738570334 L19.982131509385322,7.045455773941374 L20.2,7.999999999999999 M14.2,18 L13.982131509385322,18.954544226058626 L13.371677564089214,19.720029261429666 L12.489546054703892,20.144841406800012 L11.510453945296108,20.144841406800012 L10.628322435910786,19.720029261429666 L10.017868490614678,18.95454422605863 L9.8,18 L10.017868490614678,17.045455773941374 L10.628322435910786,16.279970738570334 L11.510453945296108,15.855158593199988 L12.48954605470389,15.855158593199988 L13.371677564089214,16.279970738570334 L13.982131509385322,17.045455773941374 L14.2,18"/></svg>
