<svg xmlns="http://www.w3.org/2000/svg" width="24" height="24" viewBox="0 0 24 24" fill="none" stroke="#5b8def" stroke-width="1.8" stroke-linecap="round" stroke-linejoin="round"><path d="M20,12 L19.799423297454588,13.780167471650515 L19.207750943219352,15.471069912940465 L18.25465185974424,16.987918414869867 L16.987918414869867,18.25465185974424 L15.471069912940465,19.207750943219352 L13.780167471650515,19.799423297454588 L12,20 L10.219832528349485,19.799423297454588 L8.528930087059535,19.207750943219352 L7.012081585130132,18.25465185974424 L5.745348140255764,16.98791841486987 L4.792249056780648,15.471069912940466 L4.20057670254541,13.780167471650513 L4,12.000000000000002 L4.20057670254541,10.219832528349489 L4.792249056780647,8.528930087059535 L5.745348140255763,7.0120815851301295 L7.01208158513013,5.7453481402557625 L8.528930087059534,4.792249056780648 L10.219832528349484,4.200576702545411 L11.999999999999998,4 L13.780167471650508,4.200576702545409 L15.471069912940465,4.792249056780646 L16.987918414869867,5.745348140255761 L18.254651859744236,7.01208158513013 L19.207750943219356,8.528930087059539 L19.799423297454588,10.219832528349484 L20,11.999999999999998 M15,12 L14.77163859753386,13.148050297095269 L14.121320343559642,14.121320343559642 L13.148050297095269,14.77163859753386 L12,15 L10.851949702904731,14.77163859753386 L9.878679656440358,14.121320343559642 L9.22836140246614,13.14805029709527 L9,12 L9.22836140246614,10.851949702904731 L9.878679656440358,9.878679656440358 L10.85194970290473,9.22836140246614 L12,9 L13.14805029709527,9.22836140246614 L14.121320343559642,9.878679656440358 L14.77163859753386,10.85194970290473 L15,12"/></svg>
